<svg data-v-423bf9ae="" xmlns="http://www.w3.org/2000/svg" viewBox="0 0 274.8148038508931 60" class="font"><!----><!----><!----><g data-v-423bf9ae="" id="f18b40fb-cf0c-4e6c-88a8-8a0a26e56b6b" fill="black" transform="matrix(5.2910052198109945,0,0,5.2910052198109945,-8.148150584568384,-30.370368750700123)"><path d="M8.26 5.74C7.25 5.74 6.39 6.37 6.06 7.33C5.74 6.37 4.88 5.74 3.89 5.74C2.99 5.74 2.21 6.23 1.82 7.02L1.82 5.88L1.54 5.88L1.54 12.88L1.82 12.88L1.82 8.17C1.82 6.90 2.73 6.02 3.87 6.02C5.01 6.02 5.92 6.90 5.92 8.17L5.92 12.88L6.20 12.88L6.20 8.17C6.20 6.90 7.11 6.02 8.24 6.02C9.38 6.02 10.31 6.90 10.31 8.17L10.31 12.88L10.57 12.88L10.57 8.17C10.57 6.75 9.54 5.74 8.26 5.74ZM16.59 13.02C18.59 13.02 20.23 11.38 20.23 9.38C20.23 7.39 18.59 5.74 16.59 5.74C14.60 5.74 12.95 7.39 12.95 9.38C12.95 11.38 14.60 13.02 16.59 13.02ZM16.59 12.74C14.74 12.74 13.23 11.24 13.23 9.38C13.23 7.53 14.74 6.02 16.59 6.02C18.45 6.02 19.95 7.53 19.95 9.38C19.95 11.24 18.45 12.74 16.59 12.74ZM30.71 16.80C30.01 16.80 29.47 16.26 29.47 15.56L29.47 5.88L29.19 5.88L29.19 8.00C28.63 6.67 27.34 5.74 25.83 5.74C23.84 5.74 22.19 7.39 22.19 9.38C22.19 11.38 23.84 13.02 25.83 13.02C27.34 13.02 28.63 12.09 29.19 10.76L29.19 15.56C29.19 16.40 29.87 17.08 30.71 17.08C30.91 17.08 31.15 17.03 31.34 16.94L31.34 16.80ZM25.83 12.74C23.98 12.74 22.47 11.24 22.47 9.38C22.47 7.53 23.98 6.02 25.83 6.02C27.69 6.02 29.19 7.53 29.19 9.38C29.19 11.24 27.69 12.74 25.83 12.74ZM34.76 13.02C36.12 13.02 37.22 11.79 37.22 10.31L37.22 5.88L36.94 5.88L36.94 10.31C36.94 11.66 35.96 12.74 34.76 12.74C33.57 12.74 32.59 11.66 32.59 10.31L32.59 5.88L32.30 5.88L32.30 10.31C32.30 11.79 33.41 13.02 34.76 13.02ZM43.72 5.74C42.21 5.74 40.92 6.67 40.36 8.00L40.36 5.88L40.08 5.88L40.08 17.08L40.36 17.08L40.36 10.76C40.92 12.09 42.21 13.02 43.72 13.02C45.71 13.02 47.36 11.38 47.36 9.38C47.36 7.39 45.71 5.74 43.72 5.74ZM43.72 12.74C41.86 12.74 40.36 11.24 40.36 9.38C40.36 7.53 41.86 6.02 43.72 6.02C45.57 6.02 47.08 7.53 47.08 9.38C47.08 11.24 45.57 12.74 43.72 12.74ZM51.43 13.02C52.57 13.02 53.48 12.25 53.48 11.27C53.48 10.03 52.50 9.63 51.54 9.22C50.66 8.86 49.81 8.51 49.81 7.49C49.81 6.46 50.68 6.04 51.45 6.04C51.99 6.04 52.54 6.25 52.87 6.72L53.10 6.54C52.78 6.13 52.13 5.74 51.43 5.74C50.63 5.74 49.53 6.23 49.53 7.53C49.53 8.73 50.51 9.13 51.45 9.50C52.34 9.85 53.20 10.22 53.20 11.20C53.20 12.18 52.36 12.74 51.43 12.74C50.54 12.74 49.67 12.21 49.44 11.59L49.18 11.67C49.46 12.43 50.44 13.02 51.43 13.02Z"></path></g><!----><!----></svg>